<svg xmlns="http://www.w3.org/2000/svg" viewBox="0 0 1200 240" width="1200" height="240" fill="none" role="img" aria-label="Activity — location-based meetups">
<defs>
<linearGradient id="acoral" x1="0" y1="0" x2="1" y2="0"><stop offset="0" stop-color="#ff5a2c"/><stop offset="1" stop-color="#ff8f5e"/></linearGradient>
<filter id="apin" x="-50%" y="-50%" width="200%" height="200%"><feDropShadow dx="0" dy="2" stdDeviation="3" flood-color="#c23a12" flood-opacity="0.25"/></filter>
<style>@keyframes rp{0%{r:14;opacity:.8}100%{r:52;opacity:0}} .rp{animation:rp 3s ease-out infinite} @keyframes fl{0%,100%{transform:translateY(0)}50%{transform:translateY(-3px)}} .fl{animation:fl 3.6s ease-in-out infinite}</style>
</defs>
<rect width="1200" height="240" rx="20" fill="#faf6ed"/>
<rect x="0.75" y="0.75" width="1198.5" height="238.5" rx="19" fill="none" stroke="#e7e0d0"/>
<g stroke="#efe8d8" stroke-width="1"><line x1="48" y1="40" x2="48" y2="200"/></g>
<g transform="translate(74 96)">
 <text x="0" y="0" font-size="15" font-weight="700" letter-spacing="3" fill="#ff5a2c" style="font-family:-apple-system,'Helvetica Neue','Inter',Arial,sans-serif;">01 — MEETUPS NEARBY</text>
 <text x="0" y="52" font-size="58" font-weight="700" fill="#1b1913" style="font-family:'Playfair Display','Georgia','Times New Roman',serif;">Activity</text>
 <rect x="2" y="70" width="150" height="3" fill="url(#acoral)"/>
 <text x="2" y="102" font-size="17" font-weight="500" fill="#6f6a5d" font-style="italic" style="font-family:'Playfair Display','Georgia','Times New Roman',serif;">Post any activity · find people nearby · real-time chat</text>
 <g transform="translate(4 126)"><circle cx="0" cy="0" r="7" fill="#2989ff"/><circle cx="30" cy="0" r="7" fill="#26b36b"/><circle cx="60" cy="0" r="7" fill="#7d5cff"/><circle cx="90" cy="0" r="7" fill="#f2a011"/><circle cx="120" cy="0" r="7" fill="#0eb5a3"/></g>
</g>
<!-- coral map pin + radar (editorial) -->
<g transform="translate(1030 118)">
 <circle class="rp" cx="0" cy="8" fill="none" stroke="#ff5a2c" stroke-width="1.5"/>
 <circle class="rp" cx="0" cy="8" fill="none" stroke="#ff5a2c" stroke-width="1.5" style="animation-delay:1.5s"/>
 <g class="fl" filter="url(#apin)"><path d="M0 40 C-22 8 -26 -6 -26 -18 A26 26 0 0 1 26 -18 C26 -6 22 8 0 40 Z" fill="url(#acoral)"/><circle cx="0" cy="-18" r="9" fill="#faf6ed"/></g>
 <g class="fl" style="animation-delay:.5s"><path d="M-74 -30 C-82 -42 -84 -49 -84 -54 A8 8 0 0 1 -68 -54 C-68 -49 -70 -42 -74 -30 Z" fill="#2989ff"/></g>
 <g class="fl" style="animation-delay:1s"><path d="M78 6 C70 -6 68 -13 68 -18 A8 8 0 0 1 84 -18 C84 -13 82 -6 78 6 Z" fill="#7d5cff"/></g>
</g>
</svg>