<svg xmlns="http://www.w3.org/2000/svg" viewBox="0 0 1200 280" width="1200" height="280" fill="none" role="img" aria-label="Project timeline across 2026 — six overlapping products"><text x="136" y="24" text-anchor="end" font-size="13" letter-spacing="2" fill="#8b98b5" style="font-family:ui-monospace,'SF Mono','JetBrains Mono',Menlo,monospace;">2026</text><text x="156" y="24" font-size="14" font-weight="600" fill="#e6edf3" style="font-family:-apple-system,'Helvetica Neue','Inter',Arial,sans-serif;">Six products, built end to end — overlapping across the year</text><line x1="150" y1="46" x2="150" y2="252" stroke="#1c2233" stroke-width="1"/><line x1="311" y1="46" x2="311" y2="252" stroke="#1c2233" stroke-width="1"/><line x1="457" y1="46" x2="457" y2="252" stroke="#1c2233" stroke-width="1"/><line x1="618" y1="46" x2="618" y2="252" stroke="#1c2233" stroke-width="1"/><line x1="775" y1="46" x2="775" y2="252" stroke="#1c2233" stroke-width="1"/><line x1="936" y1="46" x2="936" y2="252" stroke="#1c2233" stroke-width="1"/><line x1="1092" y1="46" x2="1092" y2="252" stroke="#1c2233" stroke-width="1"/><text x="156" y="40" font-size="12" letter-spacing="1" fill="#6b7688" style="font-family:ui-monospace,'SF Mono','JetBrains Mono',Menlo,monospace;">Jan</text><text x="317" y="40" font-size="12" letter-spacing="1" fill="#6b7688" style="font-family:ui-monospace,'SF Mono','JetBrains Mono',Menlo,monospace;">Feb</text><text x="463" y="40" font-size="12" letter-spacing="1" fill="#6b7688" style="font-family:ui-monospace,'SF Mono','JetBrains Mono',Menlo,monospace;">Mar</text><text x="624" y="40" font-size="12" letter-spacing="1" fill="#6b7688" style="font-family:ui-monospace,'SF Mono','JetBrains Mono',Menlo,monospace;">Apr</text><text x="781" y="40" font-size="12" letter-spacing="1" fill="#6b7688" style="font-family:ui-monospace,'SF Mono','JetBrains Mono',Menlo,monospace;">May</text><text x="942" y="40" font-size="12" letter-spacing="1" fill="#6b7688" style="font-family:ui-monospace,'SF Mono','JetBrains Mono',Menlo,monospace;">Jun</text><text x="1098" y="40" font-size="12" letter-spacing="1" fill="#6b7688" style="font-family:ui-monospace,'SF Mono','JetBrains Mono',Menlo,monospace;">Jul</text><text x="136" y="80" text-anchor="end" font-size="13" font-weight="500" fill="#c7d4ea" style="font-family:-apple-system,'Helvetica Neue','Inter',Arial,sans-serif;">Medoed</text><rect x="146" y="66" width="1023" height="16" rx="8" fill="#0f1320"/><rect x="280" y="66" width="786" height="16" rx="8" fill="#ff8a00"/><circle cx="280" cy="74" r="3.5" fill="#0b0d13" stroke="#ff8a00" stroke-width="2"/><circle cx="1066" cy="74" r="3.5" fill="#ff8a00"/><text x="136" y="112" text-anchor="end" font-size="13" font-weight="500" fill="#c7d4ea" style="font-family:-apple-system,'Helvetica Neue','Inter',Arial,sans-serif;">Siberia</text><rect x="146" y="98" width="1023" height="16" rx="8" fill="#0f1320"/><rect x="598" y="98" width="291" height="16" rx="8" fill="#2f6bff"/><circle cx="598" cy="106" r="3.5" fill="#0b0d13" stroke="#2f6bff" stroke-width="2"/><circle cx="889" cy="106" r="3.5" fill="#2f6bff"/><text x="136" y="144" text-anchor="end" font-size="13" font-weight="500" fill="#c7d4ea" style="font-family:-apple-system,'Helvetica Neue','Inter',Arial,sans-serif;">Joker</text><rect x="146" y="130" width="1023" height="16" rx="8" fill="#0f1320"/><rect x="655" y="130" width="390" height="16" rx="8" fill="#c8952a"/><circle cx="655" cy="138" r="3.5" fill="#0b0d13" stroke="#c8952a" stroke-width="2"/><circle cx="1045" cy="138" r="3.5" fill="#c8952a"/><text x="136" y="176" text-anchor="end" font-size="13" font-weight="500" fill="#c7d4ea" style="font-family:-apple-system,'Helvetica Neue','Inter',Arial,sans-serif;">Klio</text><rect x="146" y="162" width="1023" height="16" rx="8" fill="#0f1320"/><rect x="868" y="162" width="208" height="16" rx="8" fill="#ff7db0"/><circle cx="868" cy="170" r="3.5" fill="#0b0d13" stroke="#ff7db0" stroke-width="2"/><circle cx="1077" cy="170" r="3.5" fill="#ff7db0"/><text x="136" y="208" text-anchor="end" font-size="13" font-weight="500" fill="#c7d4ea" style="font-family:-apple-system,'Helvetica Neue','Inter',Arial,sans-serif;">Top-VPN</text><rect x="146" y="194" width="1023" height="16" rx="8" fill="#0f1320"/><rect x="926" y="194" width="146" height="16" rx="8" fill="#27b6e8"/><circle cx="926" cy="202" r="3.5" fill="#0b0d13" stroke="#27b6e8" stroke-width="2"/><circle cx="1071" cy="202" r="3.5" fill="#27b6e8"/><text x="136" y="240" text-anchor="end" font-size="13" font-weight="500" fill="#c7d4ea" style="font-family:-apple-system,'Helvetica Neue','Inter',Arial,sans-serif;">Activity</text><rect x="146" y="226" width="1023" height="16" rx="8" fill="#0f1320"/><rect x="1004" y="226" width="83" height="16" rx="8" fill="#ff5a2c"/><circle cx="1004" cy="234" r="3.5" fill="#0b0d13" stroke="#ff5a2c" stroke-width="2"/><circle cx="1087" cy="234" r="3.5" fill="#ff5a2c"/><line x1="1092" y1="46" x2="1092" y2="252" stroke="#d4af37" stroke-width="1" stroke-dasharray="3 3" opacity="0.7"/><text x="1092" y="268" text-anchor="middle" font-size="11" fill="#d4af37" style="font-family:ui-monospace,'SF Mono','JetBrains Mono',Menlo,monospace;">today</text></svg>